<svg xmlns="http://www.w3.org/2000/svg" viewBox="0 0 512 512"><path d="M501.333 106.667H10.667C4.779 106.667 0 111.445 0 117.333v320C0 478.507 33.493 512 74.667 512h362.667C478.507 512 512 478.507 512 437.333v-320c0-5.888-4.779-10.666-10.667-10.666zm-10.666 330.666c0 29.419-23.915 53.333-53.333 53.333H74.667c-29.419 0-53.333-23.915-53.333-53.333V128h469.333v309.333z"/><path d="M256 0c-58.816 0-106.667 47.851-106.667 106.667v74.667c0 5.888 4.779 10.667 10.667 10.667s10.667-4.779 10.667-10.667v-74.667c0-47.061 38.272-85.333 85.333-85.333s85.333 38.272 85.333 85.333v74.667c0 5.888 4.779 10.667 10.667 10.667s10.667-4.779 10.667-10.667v-74.667C362.667 47.851 314.816 0 256 0z"/><path d="M160 170.667c-17.643 0-32 14.357-32 32s14.357 32 32 32 32-14.357 32-32-14.357-32-32-32zm0 42.666c-5.867 0-10.667-4.8-10.667-10.667s4.8-10.667 10.667-10.667 10.667 4.8 10.667 10.667-4.8 10.667-10.667 10.667zm192-42.666c-17.643 0-32 14.357-32 32s14.357 32 32 32 32-14.357 32-32-14.357-32-32-32zm0 42.666c-5.867 0-10.667-4.8-10.667-10.667s4.8-10.667 10.667-10.667 10.667 4.8 10.667 10.667-4.8 10.667-10.667 10.667z"/></svg>