<svg xmlns="http://www.w3.org/2000/svg" viewBox="0 0 512 512"><path d="M496 196h-10l-19.92-69.92C450.18 70.888 401.322 31.634 344 28v-8a8 8 0 0 0-8-8H176a8 8 0 0 0-8 8v8c-57.322 3.634-106.18 42.888-122.08 98.08L26 196H16a8 8 0 0 0-8 8v32a8 8 0 0 0 8 8h9.28L64 460.72V484h-8a8 8 0 0 0 0 16h400a8 8 0 0 0 0-16h-8v-23.28L486.72 244H496a8 8 0 0 0 8-8v-32a8 8 0 0 0-8-8zM184 28h144v16H184V28zM61.36 130.48C75.275 82.157 117.845 47.635 168 44v8a8 8 0 0 0 8 8h160a8 8 0 0 0 8-8v-8c50.155 3.635 92.725 38.157 106.64 86.48L469.36 196H42.64l18.72-65.52zM41.28 244h88l16 88h-88l-16-88zm18.88 104h88l18.64 104h-88L60.16 348zm101.12-16l-16-88H248v88h-86.72zM248 348v104h-65.28l-18.56-104H248zm184 136H80v-16h352v16zm-84.16-136l-18.56 104H264V348h83.84zM264 332v-88h102.48l-16 88H264zm169.28 120h-88l18.64-104h88l-18.64 104zm21.44-120h-88l16-88h88l-16 88zM488 228H24v-16h464v16zM24 484H8a8 8 0 0 0 0 16h16a8 8 0 0 0 0-16zm480 0h-16a8 8 0 0 0 0 16h16a8 8 0 0 0 0-16z"/></svg>