<svg xmlns="http://www.w3.org/2000/svg" viewBox="0 0 504 504"><path d="M388 360h-40a8 8 0 0 0 0 16h40a8 8 0 0 0 0-16z"/><path d="M420 232h-96V56a8 8 0 0 0-8-8H156a8 8 0 0 0-8 8v128h-40c-17.673 0-32 14.327-32 32v256c0 17.673 14.327 32 32 32h312a8 8 0 0 0 8-8V240a8 8 0 0 0-8-8zM164 64h144v168H164V64zm-56 136h40v32h-40c-8.837 0-16-7.163-16-16s7.163-16 16-16zm304 192H292v-48h120v48zm0-64H284a8 8 0 0 0-8 8v64a8 8 0 0 0 8 8h128v80H108c-8.837 0-16-7.163-16-16V243.52a31.287 31.287 0 0 0 16 4.48h304v80z"/><path d="M108 456h16v16h-16zm32 0h16v16h-16zm32 0h16v16h-16zm32 0h16v16h-16zm104-96h16v16h-16zm88-176h-40V24a8 8 0 0 0-8-8H188a8 8 0 0 0 0 16h152v176a8 8 0 0 0 16 0v-8h40a8 8 0 0 0 0-16z"/><path d="M284 144h-8v-8a8 8 0 0 0-8-8h-32a8 8 0 0 0-8 8v24h-16v-24a8 8 0 0 0-16 0v8h-8a8 8 0 0 0 0 16h8v8a8 8 0 0 0 8 8h32a8 8 0 0 0 8-8v-24h16v24a8 8 0 0 0 16 0v-8h8a8 8 0 0 0 0-16zM4 16h16v16H4zM20 0h16v16H20zm0 32h16v16H20zm16-16h16v16H36zm-16 96h16v16H20zm48-48h16v16H68zm24 56h16v16H92zm16-104h16v16h-16zM468 4h16v16h-16zm16 16h16v16h-16zm-32 0h16v16h-16zm16 16h16v16h-16zM404 8h16v16h-16zm24 64h16v16h-16zm40 64h16v16h-16zm-72-8h16v16h-16z"/></svg>