<svg xmlns="http://www.w3.org/2000/svg" viewBox="0 0 512 512"><path d="M345.6 410.4c4 4 9.6 5.6 15.2 5.6 1.6 0 3.2 0 4.8-.8C396 408.8 448 385.6 448 304s-52-104.8-82.4-111.2c-7.2-1.6-14.4 0-20 4.8-6.4 4.8-9.6 12.8-9.6 20.8v171.2c0 8 3.2 16 9.6 20.8zm6.4-192c0-3.2 1.6-6.4 4-8.8 1.6-.8 3.2-1.6 4.8-1.6h1.6c32 7.2 69.6 28.8 69.6 96s-37.6 88.8-69.6 96c-2.4.8-4.8 0-6.4-1.6-2.4-2.4-4-5.6-4-8.8V218.4z"/><path d="M504 448H398.4c50.4-24.8 81.6-76 81.6-132V152c0-4.8-3.2-8-8-8H40c-4.8 0-8 3.2-8 8v164c0 56 31.2 107.2 81.6 132H8c-4.8 0-8 3.2-8 8v48c0 4.8 3.2 8 8 8h496c4.8 0 8-3.2 8-8v-48c0-4.8-3.2-8-8-8zM48 316V160h416v156c0 72.8-59.2 132-132 132H180c-72.8 0-132-59.2-132-132zm448 180H16v-32h480v32zM132.8 69.6l20.8 20.8c3.2 3.2 8 3.2 11.2 0L208 45.6l-11.2-11.2-38.4 39.2-20.8-20.8c-3.2-3.2-8-3.2-11.2 0l-52.8 53.6 11.2 11.2 48-48zm75.2 48l47.2-48L276 90.4c3.2 3.2 8 3.2 11.2 0l44-44.8L320 34.4l-38.4 39.2-20.8-20.8c-3.2-3.2-8-3.2-11.2 0l-52.8 53.6 11.2 11.2zm123.2 0l47.2-48 20.8 20.8c1.6 1.6 3.2 2.4 5.6 2.4 2.4 0 4-.8 5.6-2.4l44-44.8-11.2-11.2-38.4 39.2L384 52c-1.6-1.6-3.2-2.4-5.6-2.4-2.4 0-4 .8-5.6 2.4L320 106.4l11.2 11.2z"/><path d="M64 320h16v16H64zm0-144h16v128H64zM496 0h16v16h-16zm0 32h16v16h-16zM464 0h16v16h-16zM0 0h16v16H0zm32 0h16v16H32zM0 32h16v16H0z"/></svg>