<svg xmlns="http://www.w3.org/2000/svg" viewBox="0 0 512 512"><path d="M504.8 108.8h-.8c0-29.6-23.2-52.8-52.8-52.8H60.8C31.2 56 8 79.2 8 108.8v246.4C8 384.8 31.2 408 60.8 408h141.6l-12 56H136c-4.8 0-8 3.2-8 8v32c0 4.8 3.2 8 8 8h240c4.8 0 8-3.2 8-8v-32c0-4.8-3.2-8-8-8h-53.6l-12-56H452c28.8 0 52.8-23.2 52.8-52.8V108.8zM368 480v16H144v-16h224zm-161.6-16l12-56h75.2l12 56h-99.2zM488 355.2c0 20-16.8 36.8-36.8 36.8H60.8c-20 0-36.8-16.8-36.8-36.8V328h464v27.2zm0-43.2H24V108.8C24 88.8 40.8 72 60.8 72h390.4c20 0 36.8 16.8 36.8 36.8V312z"/><circle cx="256" cy="360" r="16"/><path d="M376 104h16v16h-16zm32 0h16v16h-16zm32 0h16v16h-16zm-32 32h16v16h-16zm32 0h16v16h-16zM296 264h160v16H296zm24-32h136v16H320zm24-32h112v16H344zm96-32h16v16h-16zm-180 .8c-2.4-1.6-5.6-1.6-8 0l-36 18.4V176c0-4.8-3.2-8-8-8h-40.8c.8-2.4.8-5.6.8-8 0-31.2-24.8-56-56-56s-56 24.8-56 56c0 28 20.8 51.2 48 55.2V272c0 4.8 3.2 8 8 8h96c4.8 0 8-3.2 8-8v-11.2l36 18.4c1.6.8 2.4.8 4 .8 4.8 0 8-3.2 8-8v-96c0-2.4-1.6-5.6-4-7.2zM104 176v23.2c-21.6-4-36-25.6-31.2-47.2 4-18.4 20-32 39.2-32 22.4 0 40 17.6 40 40 0 2.4 0 5.6-.8 8H112c-4.8 0-8 3.2-8 8zm40 8c-5.6 8-14.4 13.6-24 15.2V184h24zm56 51.2L177.6 224l22.4-11.2v22.4zm0-40l-44 21.6c-2.4 1.6-4 4-4 7.2s1.6 5.6 4 7.2l44 21.6V264h-80v-48.8c18.4-2.4 34.4-14.4 42.4-31.2H200v11.2zm48 64l-32-16v-38.4l32-16v70.4zM496 0h16v16h-16zm0 32h16v16h-16zM464 0h16v16h-16zM0 0h16v16H0zm32 0h16v16H32zM0 32h16v16H0zm0 464h16v16H0zm0-32h16v16H0zm32 32h16v16H32zm464 0h16v16h-16zm-32 0h16v16h-16zm32-32h16v16h-16z"/></svg>