<svg xmlns="http://www.w3.org/2000/svg" viewBox="0 0 512 512"><path d="M256 264c-59.647 0-108 48.353-108 108s48.353 108 108 108 108-48.353 108-108c-.088-59.61-48.39-107.912-108-108zm0 200c-50.81 0-92-41.19-92-92s41.19-92 92-92 92 41.19 92 92c-.044 50.792-41.208 91.956-92 92z"/><path d="M323.08 387.08a8.263 8.263 0 0 0-10.6 4.92c-11.421 31.107-45.897 47.065-77.004 35.643s-47.065-45.897-35.643-77.003c11.421-31.107 45.897-47.065 77.003-35.644a60.003 60.003 0 0 1 35.644 35.644 8 8 0 0 0 10.318 4.641l.002-.001a8 8 0 0 0 4.641-10.318l-.001-.002C316.089 315.4 287.664 295.92 256 296c-41.973.26-75.788 34.496-75.528 76.469.26 41.973 34.496 75.788 76.469 75.528 31.899-.198 60.28-20.294 71.059-50.317a8.263 8.263 0 0 0-4.92-10.6z"/><path d="M316 364h16v16h-16zM32 464h16v16H32zM16 200h16v16H16zm464 0h16v16h-16zM64 464h16v16H64z"/><path d="M504 232h-40v-16a8 8 0 0 0-8-8h-48a8 8 0 0 0-8 8v16h-64.72l-16-81.52a8 8 0 0 0-8-6.48H200.72a8 8 0 0 0-8 6.48l-16 81.52H128v-24a8 8 0 0 0-8-8H56a8 8 0 0 0-8 8v24H8a8 8 0 0 0-8 8v264a8 8 0 0 0 8 8h496a8 8 0 0 0 8-8V240a8 8 0 0 0-8-8zm-88-8h32v8h-32v-8zm-209.04-64h97.76l3.12 16h-104l3.12-16zm-6.24 32h110.32l8 40h-126l7.68-40zM64 216h48v16H64v-16zm432 280H16V248h480v248z"/><path d="M448 264c-17.673 0-32 14.327-32 32 0 17.673 14.327 32 32 32 17.673 0 32-14.327 32-32 0-17.673-14.327-32-32-32zm0 48c-8.837 0-16-7.163-16-16s7.163-16 16-16 16 7.163 16 16-7.163 16-16 16zm16-216H104c-8.837 0-16-7.163-16-16s7.163-16 16-16h360c17.673 0 32-14.327 32-32S481.673 0 464 0H48C30.327 0 16 14.327 16 32v144a8 8 0 0 0 16 0V32c0-8.837 7.163-16 16-16h416c8.837 0 16 7.163 16 16s-7.163 16-16 16H104c-17.673 0-32 14.327-32 32s14.327 32 32 32h360c8.837 0 16 7.163 16 16v48a8 8 0 0 0 16 0v-48c0-17.673-14.327-32-32-32z"/></svg>