<svg xmlns="http://www.w3.org/2000/svg" viewBox="0 0 261.038 261.038" width="512" height="512"><path d="M178.517 116.075c-.345 0-.698.05-1.051.147l-3.995 1.1-4.148-10.104c-1.175-2.863-4.649-5.191-7.743-5.191h-38.82c-3.094 0-6.568 2.328-7.743 5.19l-3.098 7.55a16.413 16.413 0 0 0-8.18-15.73 1.827 1.827 0 0 0-.907-.235c-1.026 0-1.8.8-1.8 1.857 0 0-.032 8.192-.031 10.922 0 .286-.343.627-.485.73l-.103.077c-1.637 1.362-3.702 2.897-4.615 3.372l-.172-.002-.183.002c-.926-.476-3.024-2.037-4.686-3.426l-.104-.078a1.235 1.235 0 0 1-.403-.937c0-2.842-.028-10.654-.028-10.654-.001-1.23-.883-1.874-1.753-1.874-.337 0-.684.092-.981.262a16.42 16.42 0 0 0-8.225 14.198c0 6.853 4.236 12.732 10.226 15.165v27.862a5.975 5.975 0 0 0 5.967 5.968h.34a5.975 5.975 0 0 0 5.968-5.968v-27.851a16.334 16.334 0 0 0 5.433-3.605 16.46 16.46 0 0 0 1.084-1.195l-1.67 4.07c-1.092 2.658-1.98 7.16-1.98 10.036v20.073a4.212 4.212 0 0 0 4.206 4.207h5.494a4.212 4.212 0 0 0 4.207-4.207v-5.012h47.265v5.012a4.212 4.212 0 0 0 4.207 4.207h5.493a4.212 4.212 0 0 0 4.207-4.207v-20.073c0-2.875-.888-7.377-1.98-10.037l-.67-1.63h.508a4.212 4.212 0 0 0 4.207-4.208v-2.354c0-1.987-1.37-3.429-3.258-3.429zm-64.625 7.707l6.275-15.284c.702-1.713 2.792-3.113 4.643-3.113h34.722c1.851 0 3.94 1.4 4.643 3.113l6.275 15.284c.703 1.712-.237 3.113-2.087 3.113h-52.384c-1.85 0-2.79-1.401-2.087-3.113zm14.007 19.331c0 .925-.757 1.683-1.683 1.683h-11.92a1.688 1.688 0 0 1-1.682-1.683v-5.72c0-.925.757-1.683 1.682-1.683h11.92c.926 0 1.683.757 1.683 1.683v5.72zm43.716 0c0 .925-.758 1.683-1.683 1.683h-11.92a1.688 1.688 0 0 1-1.682-1.683v-5.72c0-.925.757-1.683 1.683-1.683h11.92c.924 0 1.682.757 1.682 1.683v5.72z" data-original="#000000" class="active-path" data-old_color="#CC3434" fill="#CD3434"/></svg>