<?xml version="1.0" encoding="iso-8859-1"?>
<!-- Generator: Adobe Illustrator 19.0.0, SVG Export Plug-In . SVG Version: 6.00 Build 0)  -->
<svg version="1.1" id="Layer_1" xmlns="http://www.w3.org/2000/svg" xmlns:xlink="http://www.w3.org/1999/xlink" x="0px" y="0px"
	 viewBox="0 0 512 512" style="enable-background:new 0 0 512 512;" xml:space="preserve">
<g>
	<path style="fill:#ff3432;" d="M39.73,295.73l216.266-216.27l216.275,216.27c4.546,4.544,10.501,6.816,16.457,6.816
		s11.913-2.271,16.455-6.817c9.089-9.089,9.089-23.824,0-32.912L272.451,30.089c-4.364-4.364-10.282-6.816-16.455-6.816
		c-6.173,0-12.093,2.453-16.457,6.817L6.817,262.817c-9.089,9.089-9.089,23.824,0,32.912S30.642,304.818,39.73,295.73z"/>
	<path style="fill:#ff3432;" d="M272.451,216.27c-4.364-4.364-10.283-6.816-16.455-6.816c-6.173,0-12.093,2.453-16.457,6.817
		L6.818,448.999c-9.089,9.089-9.089,23.824,0,32.912c9.087,9.087,23.824,9.089,32.912-0.002l216.266-216.27l216.277,216.272
		c4.544,4.544,10.499,6.816,16.455,6.816s11.913-2.271,16.455-6.817c9.089-9.089,9.089-23.824,0-32.912L272.451,216.27z"/>
</g>
<g>
</g>
<g>
</g>
<g>
</g>
<g>
</g>
<g>
</g>
<g>
</g>
<g>
</g>
<g>
</g>
<g>
</g>
<g>
</g>
<g>
</g>
<g>
</g>
<g>
</g>
<g>
</g>
<g>
</g>
</svg>
