<svg xmlns="http://www.w3.org/2000/svg" viewBox="0 0 512 512"><g fill="#ff3432"><path d="M39.73 295.73L255.996 79.46l216.275 216.27c4.546 4.544 10.501 6.816 16.457 6.816s11.913-2.271 16.455-6.817c9.089-9.089 9.089-23.824 0-32.912L272.451 30.089a23.27 23.27 0 0 0-32.912.001L6.817 262.817c-9.089 9.089-9.089 23.824 0 32.912s23.825 9.089 32.913.001z"/><path d="M272.451 216.27a23.271 23.271 0 0 0-32.912.001L6.818 448.999c-9.089 9.089-9.089 23.824 0 32.912 9.087 9.087 23.824 9.089 32.912-.002l216.266-216.27 216.277 216.272c4.544 4.544 10.499 6.816 16.455 6.816s11.913-2.271 16.455-6.817c9.089-9.089 9.089-23.824 0-32.912L272.451 216.27z"/></g></svg>