<svg xmlns="http://www.w3.org/2000/svg" xmlns:xlink="http://www.w3.org/1999/xlink" width="21" height="21" viewBox="0 0 21 21"><defs><path id="jqqna" d="M457 156a9 9 0 1 1 0 18 9 9 0 0 1 0-18z"/><path id="jqqnb" d="M456.84 167.4c-.1 0-.21-.04-.3-.1l-2.35-1.93a.49.49 0 0 1-.07-.67c.16-.21.46-.25.66-.08l2 1.64 3-3.5c.17-.2.46-.22.66-.05.2.18.21.48.04.68l-3.29 3.84c-.1.11-.22.17-.35.17z"/></defs><g><g transform="translate(-446 -154)"><use fill="#ff0200" xlink:href="#jqqna"/></g><g transform="translate(-446 -154)"><use fill="#fff" xlink:href="#jqqnb"/></g></g></svg>